PathFileType	4	(X/Y/Z)	c:/Users/goper/Files/vsCode/490R/osim_files/A03/A03_Fast_06.trc
DataRate	CameraRate	NumFrames	NumMarkers	Units                	OrigDataRate	OrigDataStartFrame	OrigNumFrames
250.00	250.00	4	36	mm	250.0	1341	2145
                Frame#	Time	LPSIS			LASIS			LTH1			LTH2			LTH3			LTH4			LLFE			LMFE			LSH1			LSH2			LSH3			LSH4			LLMAL			LMMAL			LCAL			LMTP5			LTOE			LMTP1			RPSIS			RASIS			RTH1			RTH2			RTH3			RTH4			RLFE			RMFE			RSH1			RSH2			RSH3			RSH4			RLMAL			RMMAL			RCAL			RMTP1			RTOE			RMTP5		
		X1	Y1	Z1	X2	Y2	Z2	X3	Y3	Z3	X4	Y4	Z4	X5	Y5	Z5	X6	Y6	Z6	X7	Y7	Z7	X8	Y8	Z8	X9	Y9	Z9	X10	Y10	Z10	X11	Y11	Z11	X12	Y12	Z12	X13	Y13	Z13	X14	Y14	Z14	X15	Y15	Z15	X16	Y16	Z16	X17	Y17	Z17	X18	Y18	Z18	X19	Y19	Z19	X20	Y20	Z20	X21	Y21	Z21	X22	Y22	Z22	X23	Y23	Z23	X24	Y24	Z24	X25	Y25	Z25	X26	Y26	Z26	X27	Y27	Z27	X28	Y28	Z28	X29	Y29	Z29	X30	Y30	Z30	X31	Y31	Z31	X32	Y32	Z32	X33	Y33	Z33	X34	Y34	Z34	X35	Y35	Z35	X36	Y36	Z36

1341	5.36000	-2054.37769	1046.28418	322.16800	-2301.89673	968.93683	435.08572	-2350.70410	630.99292	481.68134	-2372.31616	593.58325	480.81735	-2404.42334	654.39172	461.45163	-2417.30518	612.17438	463.25967	-2380.51245	547.10156	471.08710	-2397.46997	551.83118	315.72708	-2343.55884	459.46082	465.78885	-2347.68091	411.68430	461.15012	-2404.94873	456.80823	458.23026	-2397.96875	410.24017	450.70230	-2362.31885	93.63219	406.59006	-2367.53174	105.12959	310.04642	-2289.72949	80.87186	358.46219	-2513.35718	42.49001	405.69592	-2538.64502	78.50647	336.64395	-2505.71240	57.34313	292.87097	-2051.51196	1052.22192	239.36584	-2279.05859	942.33789	133.83604	-2164.38794	588.78259	70.03025	-2159.31616	544.30017	74.68339	-2223.77710	575.64166	67.61525	-2212.34814	533.25549	72.35149	-2174.98975	506.93817	86.55392	-2224.43921	494.49026	203.19098	-2098.35815	494.45175	88.50919	-2066.75464	467.25641	78.37332	-2135.63721	443.94534	82.37122	-2095.26929	421.80276	73.62431	-1850.39929	248.40022	141.21077	0.00000	0.00000	0.00000	-1793.14368	285.32718	192.15649	-1856.49768	89.03827	263.13593	-1886.95032	69.55015	217.39780	-1838.37476	71.05698	150.55412
1342	5.36400	-2059.60400	1047.04846	322.51193	-2306.60596	969.23505	435.47430	-2354.17896	631.19684	481.93323	-2375.65674	593.59686	480.87164	-2408.16089	654.22266	461.52765	-2420.71753	611.87787	463.33627	-2383.73511	547.11243	471.16083	-2400.72803	551.80670	315.83783	-2346.22949	459.69272	465.83014	-2350.09229	411.89142	461.17963	-2407.86841	457.03012	458.12411	-2400.33423	410.13345	450.72900	-2362.48926	93.72841	406.52539	-2367.67432	105.14901	310.01163	-2289.82935	81.03141	358.39136	-2513.48364	42.40490	405.63849	-2538.78418	78.27257	336.55365	-2505.81665	57.13968	292.80484	-2056.67432	1052.71997	239.67764	-2285.05005	943.75470	134.38345	-2174.95996	589.86072	69.23079	-2170.07031	545.16907	74.15095	-2235.02856	577.15729	67.18296	-2223.21362	534.43182	71.96263	-2185.98633	507.93777	86.07226	-2235.09131	495.85364	203.23845	-2109.49438	495.83008	87.49705	-2077.99365	468.72672	77.60358	-2146.69604	445.02872	81.97932	-2106.27734	423.08414	73.19411	-1860.00110	252.26205	140.52776	0.00000	0.00000	0.00000	-1805.23730	290.69986	190.43663	-1862.75708	92.10295	262.34064	-1891.85706	70.20699	216.60373	-1843.47534	74.14574	149.78017
1343	5.36800	-2064.71191	1047.88025	322.80289	-2311.27563	969.38837	435.83182	-2357.52197	631.11725	481.62030	-2378.88501	593.59625	480.82690	-2411.76733	654.09387	461.56976	-2424.06592	611.62878	463.37433	-2386.78613	547.09320	471.15317	-2404.03564	551.53876	315.73071	-2348.85986	459.99631	465.83508	-2352.34668	412.13113	461.16690	-2410.10840	456.50018	458.20587	-2402.65576	410.05515	450.66046	-2362.55273	93.77787	406.46332	-2367.81787	105.15292	309.95996	-2289.92603	81.22497	358.35117	-2513.56055	42.32288	405.60449	-2538.92749	78.04978	336.46979	-2505.90918	56.94967	292.74493	-2063.38208	1052.99341	239.66969	-2291.12158	945.20660	134.94675	-2185.69556	590.31421	69.52211	-2180.85645	546.12622	73.65038	-2245.59546	578.56848	66.93983	-2234.05591	535.76294	71.64335	-2197.03345	509.01212	85.63553	-2245.76929	497.24673	203.33807	-2121.12744	497.10843	86.93067	-2089.31421	470.15253	76.84792	-2157.84058	446.12555	81.66158	-2117.31128	424.34314	72.76756	-1869.68958	256.08698	139.87404	0.00000	0.00000	0.00000	-1817.67871	295.56390	189.05223	-1868.70544	94.85066	261.01105	-1896.91418	71.04869	215.59329	-1849.04565	77.40775	148.89697
1344	5.37200	-2070.92896	1048.47534	322.88705	-2315.96948	969.48468	436.14587	-2360.78271	631.17761	481.55115	-2382.12378	593.63654	480.79559	-2415.26514	653.96271	461.53940	-2427.41626	611.45312	463.34598	-2389.84644	547.10535	471.14798	-2406.53687	551.33868	315.75165	-2351.38672	460.21912	465.81125	-2354.59668	412.38474	461.14462	-2412.94360	456.73615	458.10654	-2404.88086	409.98032	450.65326	-2362.72876	93.91435	406.38928	-2367.98389	105.24559	309.89484	-2289.86743	81.46926	358.25113	-2513.66992	42.26083	405.53699	-2539.09692	77.84813	336.40598	-2506.01001	56.78139	292.69217	-2068.66479	1053.49890	239.91866	-2297.16992	946.70984	135.52386	-2196.25708	591.39532	69.14443	-2191.72388	547.12860	73.20700	-2256.25586	580.05927	66.80709	-2244.96924	537.17328	71.37915	-2208.11621	510.13638	85.27045	-2256.40820	498.74878	203.48848	-2132.63843	498.41608	86.22012	-2100.64648	471.69125	76.13246	-2169.02295	447.26443	81.44959	-2128.44360	425.66705	72.51437	-1879.48816	259.84012	139.23390	0.00000	0.00000	0.00000	-1829.67188	300.02353	188.40421	-1874.93567	97.75962	259.83493	-1902.59119	72.79456	214.38188	-1855.13916	80.89954	147.81711
